<?xml version="1.0" standalone="no"?>
<!DOCTYPE svg PUBLIC "-//W3C//DTD SVG 20010904//EN"
 "http://www.w3.org/TR/2001/REC-SVG-20010904/DTD/svg10.dtd">
<svg version="1.0" xmlns="http://www.w3.org/2000/svg"
 width="793.000000pt" height="889.000000pt" viewBox="0 0 793.000000 889.000000"
 preserveAspectRatio="xMidYMid meet">

<g transform="translate(0.000000,889.000000) scale(0.100000,-0.100000)"
fill="#000000" stroke="none">
<path d="M3661 8714 c-106 -28 -236 -115 -309 -206 -53 -66 -91 -155 -104
-244 -14 -99 2 -203 56 -345 20 -53 36 -108 36 -122 0 -14 -14 -54 -30 -89
-59 -126 -60 -241 -4 -293 13 -12 24 -27 24 -32 0 -5 -55 -31 -122 -58 -151
-59 -316 -142 -392 -196 -60 -43 -96 -98 -96 -148 0 -16 -9 -58 -20 -93 -11
-36 -27 -100 -36 -144 -8 -43 -26 -113 -39 -154 -14 -46 -28 -125 -35 -205 -6
-71 -23 -186 -38 -255 -22 -102 -27 -151 -27 -265 -1 -168 7 -209 42 -232 25
-17 26 -16 46 13 35 50 123 130 209 188 86 58 101 63 140 46 18 -9 43 -4 118
20 52 17 118 33 145 35 l50 4 -47 -10 c-43 -10 -67 -29 -36 -29 31 0 -5 -11
-65 -19 -69 -10 -187 -50 -187 -63 0 -11 27 -9 95 7 33 8 78 15 100 14 l40 0
-55 -18 c-109 -36 -309 -143 -400 -213 -29 -23 -70 -86 -70 -109 0 -8 -11 -25
-25 -37 -14 -12 -25 -28 -25 -35 0 -8 -19 -43 -41 -78 -23 -35 -47 -79 -54
-99 -12 -31 -34 -86 -95 -230 -10 -25 -37 -85 -59 -135 -22 -49 -54 -140 -70
-202 -17 -61 -37 -128 -45 -150 -9 -21 -33 -109 -55 -196 -42 -163 -49 -182
-87 -232 -12 -16 -33 -52 -47 -80 -13 -27 -32 -65 -42 -83 -23 -45 -15 -80 44
-180 65 -108 124 -178 175 -205 48 -25 131 -27 451 -9 167 9 207 15 330 47
188 50 182 49 187 33 2 -7 1 -74 -2 -148 -3 -74 -4 -141 -2 -147 7 -21 29 -15
133 34 60 28 103 43 109 37 4 -5 11 -74 15 -154 3 -80 12 -199 20 -265 61
-512 128 -1157 145 -1395 11 -157 25 -326 31 -377 5 -50 9 -163 7 -251 l-3
-160 58 -86 c58 -85 58 -86 52 -140 l-7 -55 37 -18 c53 -25 69 -52 50 -81 -15
-21 -17 -21 -49 -5 -41 19 -63 13 -72 -22 -10 -42 14 -85 60 -106 59 -27 212
-26 297 1 108 34 130 64 106 144 -9 28 -18 87 -22 131 -3 44 -13 90 -21 102
-19 30 -18 35 8 31 16 -2 23 4 28 22 4 14 19 48 34 77 39 78 35 125 -18 231
l-43 87 -7 204 c-4 112 -14 295 -21 405 -8 111 -15 295 -15 410 0 121 -5 234
-12 266 -11 56 -11 58 24 121 74 131 81 169 79 401 -2 242 9 364 55 587 32
155 52 211 74 211 16 0 25 -32 54 -185 15 -77 40 -203 56 -280 68 -325 87
-506 100 -962 5 -192 15 -476 21 -633 6 -157 14 -424 19 -595 9 -351 15 -385
80 -460 38 -44 40 -49 40 -116 0 -82 9 -103 50 -117 22 -8 32 -19 37 -42 7
-38 31 -55 101 -69 120 -25 326 -1 360 42 6 8 -1 31 -26 76 -28 50 -44 67 -74
80 -21 9 -38 21 -38 26 0 6 14 22 31 36 31 25 31 26 15 51 -15 23 -15 28 3 69
22 48 41 150 41 216 0 23 -18 100 -41 170 -39 123 -41 131 -33 208 5 44 8 177
9 295 0 118 4 296 8 395 6 117 5 257 -2 397 -10 183 -9 236 3 335 35 273 43
514 40 1218 -1 138 -1 432 0 655 1 482 -7 555 -81 734 -25 60 -65 189 -90 285
l-45 176 -2 195 c-1 107 0 203 2 213 6 24 29 21 68 -8 52 -40 59 -60 35 -99
-12 -18 -21 -43 -21 -54 0 -25 40 -54 100 -74 38 -12 48 -21 68 -61 14 -29 37
-56 60 -71 20 -13 76 -65 123 -117 48 -52 112 -110 144 -129 31 -19 82 -58
113 -85 132 -117 147 -119 224 -35 49 53 59 60 93 60 22 0 46 7 57 17 11 10
33 16 57 15 37 -2 71 16 71 38 0 41 -36 52 -64 21 -15 -16 -23 -18 -54 -9 -19
5 -46 17 -59 25 -21 14 -26 13 -60 -7 -23 -13 -45 -19 -60 -15 -12 3 -39 -1
-59 -10 -93 -39 -154 -8 -154 78 0 81 7 87 108 88 63 0 81 3 64 9 -19 8 -21
13 -12 30 14 26 42 40 79 40 35 0 41 18 13 43 -25 23 -55 21 -96 -5 -87 -56
-105 -66 -110 -60 -24 24 30 130 85 167 38 24 51 57 29 70 -5 3 -10 14 -10 24
0 10 -18 45 -39 78 -22 32 -52 86 -66 120 -22 50 -36 68 -69 87 -22 14 -76 61
-120 106 -75 77 -80 84 -103 167 -31 109 -57 161 -127 248 -75 94 -100 142
-163 318 -29 83 -60 161 -68 173 -42 64 -155 113 -321 139 -54 9 -137 27 -184
40 -47 14 -109 30 -138 36 -71 15 -84 35 -76 116 10 92 7 96 -62 73 -32 -11
-82 -34 -112 -51 -52 -29 -59 -31 -151 -27 -83 3 -104 7 -154 33 -78 39 -97
64 -97 129 -1 32 -12 78 -30 126 -38 96 -39 152 -4 203 20 30 24 45 18 65 -4
15 -8 44 -9 66 -1 24 -7 41 -18 48 -22 12 -23 75 -1 106 27 39 53 45 209 49
134 2 151 5 169 23 14 13 21 33 21 60 0 71 -83 132 -222 164 -87 19 -140 19
-212 0z m-51 -840 c15 -38 13 -40 -15 -14 -29 27 -32 40 -10 40 9 0 20 -12 25
-26z m0 -56 c22 -24 27 -48 9 -48 -8 0 -8 -4 0 -14 9 -10 8 -16 -4 -26 -12
-10 -16 -9 -21 4 -4 9 -4 20 0 23 3 3 -5 21 -19 39 -14 18 -25 35 -25 38 0 15
41 4 60 -16z m620 -177 c0 -19 -68 -81 -88 -81 -21 0 -52 24 -52 40 0 8 102
48 128 49 6 1 12 -3 12 -8z m-536 -335 c23 -8 30 -8 33 2 6 17 26 15 68 -5 26
-13 35 -22 32 -35 -3 -12 3 -22 16 -30 53 -27 97 -73 97 -100 0 -15 -4 -30
-10 -33 -6 -4 -10 6 -10 23 0 40 -20 55 -54 42 -19 -7 -26 -17 -26 -37 -1 -23
-2 -25 -10 -11 -7 11 -6 25 2 43 8 18 8 29 1 36 -8 8 -20 -8 -41 -52 l-29 -63
20 -28 c23 -31 37 -36 37 -13 0 23 28 18 41 -7 27 -49 35 -736 10 -761 -9 -9
-36 52 -138 313 -72 183 -184 512 -177 519 2 3 17 -8 32 -22 31 -30 42 -27 42
11 0 14 13 36 30 52 18 17 30 38 30 54 0 20 5 26 22 26 18 0 13 8 -33 51 -30
28 -45 47 -34 44 11 -4 33 -13 49 -19z m-146 -70 c2 -28 0 -37 -10 -34 -7 3
-14 22 -16 42 -2 28 0 37 10 34 7 -3 14 -22 16 -42z m430 -39 c41 -55 91 -87
134 -87 66 -1 68 -4 68 -109 0 -54 -7 -149 -15 -212 -9 -63 -26 -229 -40 -369
-47 -502 -59 -610 -70 -610 -5 0 -38 69 -72 153 l-61 152 -4 437 -3 437 31 33
c71 74 73 121 9 173 -25 21 -42 41 -39 46 10 17 22 9 62 -44z m-575 -1301 c12
-14 33 -38 46 -56 13 -18 50 -43 89 -60 63 -29 84 -52 26 -29 -16 6 -67 17
-113 25 -46 7 -101 23 -123 34 -50 26 -64 25 -100 -5 -16 -14 -42 -28 -56 -31
-35 -9 -52 -22 -53 -43 0 -9 -28 -36 -61 -61 -64 -47 -100 -82 -158 -151 -76
-92 -83 -96 -109 -80 -10 7 -11 13 -1 31 9 17 18 21 42 18 29 -5 30 -4 24 26
-4 17 -11 33 -16 34 -22 8 -7 32 46 81 79 73 170 135 235 162 31 13 57 29 58
34 0 6 26 12 56 15 64 6 75 20 25 33 -19 5 -39 13 -45 18 -16 16 41 0 115 -31
36 -15 76 -31 88 -35 23 -7 24 -7 6 19 -9 15 -31 38 -48 51 -24 19 -27 25 -13
25 10 0 28 -11 40 -24z m588 -262 c5 -3 -2 -26 -15 -52 -12 -26 -40 -91 -61
-144 -26 -67 -43 -98 -54 -98 -9 0 -36 12 -61 27 -32 18 -59 26 -93 26 -55 -1
-65 -6 -47 -28 7 -8 10 -21 7 -29 -13 -34 -178 -49 -227 -21 -14 8 -52 15 -85
15 -33 0 -66 4 -74 9 -29 19 15 98 70 127 19 10 72 17 149 21 l118 6 24 71 23
71 105 6 c105 6 205 3 221 -7z m-613 -380 c44 -18 40 -34 -10 -36 -63 -2 -81
1 -97 17 -12 12 -12 17 -1 30 14 17 48 14 108 -11z m-705 -111 c-35 -72 -54
-127 -58 -165 -7 -60 -19 -78 -38 -59 -8 8 -7 25 6 64 9 28 22 72 28 97 16 66
89 194 102 181 8 -8 -4 -42 -40 -118z m1075 30 c-6 -31 -93 -56 -193 -57 -98
-1 -140 8 -115 24 8 6 33 10 55 11 22 0 76 9 120 18 110 25 137 25 133 4z
m-457 -84 c5 -11 7 -19 3 -19 -11 0 -44 32 -44 41 0 14 30 -2 41 -22z"/>
<path d="M3512 5398 c3 -7 22 -14 42 -16 28 -2 37 0 34 10 -3 7 -22 14 -42 16
-28 2 -37 0 -34 -10z"/>
<path d="M4185 8246 c-22 -22 -26 -33 -21 -59 3 -18 18 -43 33 -56 l28 -24 3
73 c4 88 -6 103 -43 66z"/>
<path d="M3970 8160 c-36 -16 -70 -30 -76 -30 -5 0 -23 -14 -39 -30 -31 -32
-31 -33 15 -59 8 -5 47 -12 85 -16 64 -6 73 -4 99 16 36 29 58 79 50 118 -6
27 -11 31 -38 31 -17 0 -60 -14 -96 -30z"/>
<path d="M4198 7905 c-21 -14 -38 -30 -38 -35 0 -6 20 -10 44 -10 25 0 56 -4
70 -10 30 -11 34 -38 9 -46 -66 -21 -162 -71 -186 -96 -33 -35 -28 -52 6 -21
32 30 94 60 157 76 65 17 69 27 41 107 -23 66 -47 74 -103 35z"/>
<path d="M6170 6009 c-20 -11 -55 -19 -81 -19 -30 0 -51 -6 -60 -16 -7 -9 -33
-30 -58 -47 -25 -17 -39 -33 -32 -35 7 -2 16 -15 21 -28 13 -33 38 -31 42 3 3
28 11 33 140 79 51 18 88 47 88 69 0 19 -16 17 -60 -6z"/>
<path d="M5915 5710 c-3 -5 3 -10 14 -10 12 0 21 5 21 10 0 6 -6 10 -14 10 -8
0 -18 -4 -21 -10z"/>
<path d="M5964 5633 c3 -4 24 -6 45 -5 26 2 40 -2 44 -12 3 -8 24 -16 49 -19
24 -3 75 -14 113 -26 64 -19 105 -20 105 -3 0 15 -237 72 -300 72 -35 0 -60
-3 -56 -7z"/>
</g>
</svg>
