<?xml version="1.0" encoding="iso-8859-1"?>
<!-- Generator: Adobe Illustrator 19.0.0, SVG Export Plug-In . SVG Version: 6.00 Build 0)  -->
<svg version="1.1" id="Capa_1" xmlns="http://www.w3.org/2000/svg" xmlns:xlink="http://www.w3.org/1999/xlink" x="0px" y="0px"
	 viewBox="0 0 511.999 511.999" style="enable-background:new 0 0 511.999 511.999;" xml:space="preserve">
<g>
	<g>
		<path d="M502.207,468.365l-13.78-78.922c-6.048-34.63-38.113-58.308-72.98-53.9l-16.486,2.083l-40.424-30.951
			c-20.723-15.867-48.876-17.967-71.727-5.35l-18.155,10.025l-53.321-114.22c6.299-4.282,9.714-11.597,9.176-19.004
			c0,0,21.798-10.201,22.014-10.33c0.985,0.104,8.15,0.864,14.988-2.518c14.064-6.955,20.374-23.612,13.732-37.828c0,0,0,0,0-0.001
			c-6.645-14.213-23.612-20.374-37.828-13.732c-4.755,2.222-8.714,5.631-11.564,9.88c-0.176,0.067-22.028,10.263-22.028,10.263
			c-12.866-11.201-25.957-2.912-25.957-2.912c-8.693-19.344-22.236-46.007-40.915-73.084c4.706-10.52,5.008-22.942-0.243-34.179
			C127.118,3.165,102.622-5.73,82.1,3.862C72.16,8.507,64.624,16.745,60.878,27.059c-3.744,10.313-2.795,21.269,1.397,31.41
			c7.727,18.69,25.109,21.867,26.073,22.14c8.733,31.505,20.391,58.866,29.804,78.243c0,0-16.316,5.307-14.43,21.784
			c0,0-21.72,10.175-21.969,10.329c-4.98-0.532-10.161,0.241-15.019,2.512c-14.215,6.644-20.376,23.613-13.733,37.83
			c4.828,10.33,15.109,16.406,25.824,16.406c4.028,0,8.119-0.859,12.003-2.674c4.738-2.214,8.688-5.606,11.535-9.834l22.035-10.298
			c3.955,3.832,10.439,8.087,20.493,5.164l36.422,77.937l-17.819-2.859c-30.407-4.88-59.676,13.781-68.086,43.405l-10.492,36.96
			l-15.183,2.354c-41.73,6.795-50.409,47.671-50.409,47.671c-1.182,3.97,1.079,8.146,5.049,9.328
			c0.714,0.212,7.297,1.545,9.328-5.049c0,0,4.135-13.654,8.871-19.501c12.194,6.806,29.44,16.58,51.416,29.14
			c5.214,2.98,10.924,4.469,16.632,4.469c5.779,0,11.558-1.527,16.815-4.578c10.453-6.065,16.693-16.903,16.693-28.99v-99.926
			c5.448-1.19,11.19-1.401,16.988-0.471l27.872,4.472l18.243,39.039c-4.673,0.289-37.894,0.358-51.182,37.894l-35.539,95.634H46.493
			c-7.088,0-13.583-3.259-17.82-8.941c-4.237-5.682-5.508-12.837-3.486-19.631c1.182-3.97-1.079-8.146-5.049-9.328
			c-3.972-1.182-8.147,1.08-9.328,5.049c-3.386,11.377-1.258,23.361,5.839,32.878c7.097,9.516,17.975,14.974,29.846,14.974h419.037
			c11.021,0,21.41-4.839,28.501-13.276C501.124,490.286,504.102,479.222,502.207,468.365z M236.814,134.906
			c1.227-3.378,3.695-6.077,6.951-7.599c1.837-0.858,3.771-1.265,5.676-1.265c5.066,0,9.929,2.874,12.212,7.758
			c3.141,6.722,0.228,14.747-6.493,17.888c-3.258,1.522-6.91,1.684-10.289,0.458c-3.379-1.227-6.077-3.695-7.599-6.952
			C235.75,141.939,235.588,138.285,236.814,134.906z M84.478,231.45c-6.727,3.142-14.747,0.228-17.888-6.493
			c-3.142-6.722-0.229-14.747,6.493-17.888c1.838-0.859,13.024-4.626,17.888,6.493C94.003,220.495,91.2,228.309,84.478,231.45z
			 M107.106,216.431c-0.316-3.152-1.164-6.262-2.545-9.218c-1.399-2.994-3.261-5.626-5.454-7.861l9.709-4.537l7.984,17.086
			L107.106,216.431z M101.43,436.435c-19.597-11.2-35.442-20.189-47.326-26.852c5.341-3.486,11.429-5.883,17.924-6.889l15.347-2.379
			l27.018,38.188C110.04,439.426,105.467,438.742,101.43,436.435z M129.128,420.358c0,3.401-0.898,6.621-2.539,9.406l-27.577-38.977
			l10.826-38.136c3.151-11.099,10.192-20.15,19.29-25.996V420.358z M400.846,352.506l16.479-2.082
			c16.774-2.121,32.696,4.176,43.446,15.686l-85.224,39.029c-2.813-3.195-5.866-6.099-9.116-8.699L400.846,352.506z
			 M349.417,318.585l36.847,28.211l-32.525,41.521c-5.402-2.703-11.121-4.706-17.027-5.968l-3.9-72.174
			C338.714,311.899,344.353,314.707,349.417,318.585z M294.06,314.455c7.395-4.083,15.509-6.161,23.619-6.304l3.923,72.616
			c-6.929-0.269-19.354,2.545-19.354,2.545l-27.236-58.34L294.06,314.455z M221.136,142.327c0.318,3.153,1.165,6.264,2.546,9.219
			c1.381,2.955,3.224,5.601,5.438,7.867l-9.694,4.53l-7.984-17.086L221.136,142.327z M90.593,65.591
			c-6.548-2.377-11.778-7.162-14.726-13.473c-2.949-6.311-3.265-13.392-0.888-19.939C77.355,25.63,82.14,20.4,88.451,17.451
			C92.011,15.787,95.758,15,99.452,15c9.818,0,19.242,5.57,23.666,15.036c6.088,13.027,0.441,28.58-12.586,34.668
			C104.224,67.653,97.142,67.968,90.593,65.591z M104.306,81.885c4.3-0.512,8.539-1.706,12.576-3.593
			c4.085-1.909,7.701-4.417,10.811-7.359c16.532,24.689,28.654,48.702,36.581,66.366l-32.531,15.201
			C123.142,134.817,112.583,110.225,104.306,81.885z M141.712,215.303c-3.061,1.429-6.714,0.104-8.145-2.957l-14.335-30.676
			c-0.693-1.483-1.561-5.675,2.956-8.144l64.345-30.069c0.837-0.391,1.717-0.576,2.585-0.576c2.307,0,4.521,1.308,5.56,3.532
			l14.333,30.673c0,0.001,0.001,0.003,0.001,0.004c0,0,0,0.001,0.001,0.001c1.428,3.06,0.102,6.712-2.957,8.143L141.712,215.303z
			 M158.597,223.968l14.841-6.935l36.912,78.987c3.322,5.809,8.943,4.099,9.97,3.62c3.753-1.754,5.373-6.217,3.62-9.97
			l-36.912-78.987l14.839-6.934l85.354,182.835l-16.332,3.553l-33.976-72.704c-1.755-3.753-6.221-5.373-9.97-3.62
			c-3.753,1.754-5.373,6.218-3.62,9.97l24.7,52.855c0,0-13.275-10.307-23.509-11.613L158.597,223.968z M235.432,386.149
			l23.031,16.043l-8.382,51.041c-0.927-0.981-33.262-53.388-45.741-74.38C215.196,377.216,226.234,379.742,235.432,386.149z
			 M136.513,496.999l33.597-90.408c3.679-9.899,10.664-17.894,19.696-22.838c12.609,21.291,31.118,51.537,45.013,74.107
			c5.534,8.991,14.712,14.915,25.181,16.253c1.49,0.191,15.339,2.052,28.461-9.395c4.765-4.157,11.607-11.138,16.862-16.192
			c2.985-2.872,3.078-7.62,0.206-10.605c-2.871-2.984-7.616-3.077-10.604-0.207c-5.251,5.05-12.289,11.805-16.849,16.179
			c-3.754,3.602-8.682,5.54-13.805,5.497l8.935-54.407c0,0,39.639-8.513,39.732-8.532c9.403-1.954,15.758-0.746,23.348,1.276
			c-5.923,5.763-12.473,12.112-19.573,18.975c-2.979,2.879-3.06,7.627-0.181,10.605c1.471,1.522,6.309,3.69,10.604,0.181
			c9.661-7.893,17.053-16.512,24.119-23.402c5.372,3.289,10.252,7.503,14.397,12.57l65.74,80.342H136.513z M482.55,489.073
			c-4.234,5.038-10.438,7.927-17.019,7.927h-14.754l-65.362-79.881l83.945-38.443c1.991,4.136,3.462,8.604,4.29,13.346
			l13.781,78.923C488.562,477.427,486.783,484.035,482.55,489.073z"/>
	</g>
</g>
<g>
	<g>
		<circle cx="99.491" cy="41.081" r="7.5"/>
	</g>
</g>
<g>
</g>
<g>
</g>
<g>
</g>
<g>
</g>
<g>
</g>
<g>
</g>
<g>
</g>
<g>
</g>
<g>
</g>
<g>
</g>
<g>
</g>
<g>
</g>
<g>
</g>
<g>
</g>
<g>
</g>
</svg>
