<?xml version="1.0" standalone="no"?>
<!DOCTYPE svg PUBLIC "-//W3C//DTD SVG 20010904//EN"
 "http://www.w3.org/TR/2001/REC-SVG-20010904/DTD/svg10.dtd">
<svg version="1.0" xmlns="http://www.w3.org/2000/svg"
 width="3543.000000pt" height="1772.000000pt" viewBox="0 0 3543.000000 1772.000000"
 preserveAspectRatio="xMidYMid meet">

<g transform="translate(0.000000,1772.000000) scale(0.100000,-0.100000)"
fill="#000000" stroke="none">
<path d="M8635 16715 c-27 -19 -132 -35 -235 -35 -70 -1 -94 -5 -135 -25 -32
-16 -67 -25 -98 -25 -35 0 -58 -7 -85 -25 -22 -15 -51 -25 -73 -25 -21 0 -47
-8 -61 -19 -13 -11 -38 -23 -54 -27 -16 -4 -41 -15 -56 -25 -14 -11 -32 -19
-40 -19 -8 0 -29 -11 -48 -25 -19 -14 -42 -25 -51 -25 -10 0 -31 -11 -47 -25
-17 -14 -37 -25 -46 -25 -8 0 -25 -11 -38 -24 -13 -13 -50 -38 -83 -56 -33
-17 -69 -39 -80 -49 -11 -10 -45 -34 -77 -54 -31 -20 -58 -41 -60 -46 -4 -12
-61 -54 -112 -82 -46 -25 -424 -396 -463 -454 -15 -22 -48 -65 -75 -96 -26
-31 -59 -78 -73 -105 -14 -27 -34 -58 -44 -69 -19 -22 -114 -205 -126 -245 -4
-14 -16 -36 -26 -49 -11 -13 -19 -38 -19 -55 0 -17 -12 -49 -25 -71 -14 -22
-25 -53 -25 -70 0 -16 -12 -48 -25 -70 -20 -32 -25 -53 -25 -105 0 -50 -6 -76
-25 -112 l-25 -47 0 -420 0 -421 25 -66 c16 -42 25 -87 25 -123 0 -39 8 -73
25 -109 14 -30 25 -72 25 -93 0 -22 10 -59 22 -82 12 -23 25 -66 29 -95 4 -30
15 -62 24 -72 9 -10 19 -38 22 -62 3 -24 14 -55 25 -70 10 -15 22 -47 27 -73
5 -25 16 -54 24 -63 9 -10 20 -37 26 -60 5 -24 16 -51 24 -60 8 -9 18 -36 22
-59 3 -23 15 -51 25 -63 10 -12 22 -36 25 -53 4 -18 16 -46 26 -63 10 -17 19
-48 19 -68 0 -21 10 -61 23 -89 28 -65 27 -137 -2 -192 -11 -21 -21 -55 -21
-75 0 -23 -9 -49 -25 -70 -14 -19 -25 -41 -25 -51 0 -9 -8 -27 -19 -40 -23
-30 -81 -144 -81 -161 0 -7 -9 -24 -20 -38 -11 -14 -20 -34 -20 -45 0 -11 -11
-38 -25 -60 -13 -22 -25 -53 -25 -70 0 -16 -11 -48 -25 -70 -17 -28 -24 -55
-25 -90 0 -32 -9 -70 -26 -105 -25 -54 -25 -55 -24 -329 0 -249 2 -277 19
-310 11 -20 33 -65 49 -101 23 -51 52 -87 131 -166 101 -101 101 -101 101
-150 0 -27 -4 -55 -8 -62 -15 -23 -76 -62 -98 -62 -11 0 -39 -12 -60 -26 -21
-15 -57 -29 -79 -32 -22 -2 -49 -12 -60 -22 -11 -10 -38 -20 -60 -23 -21 -4
-51 -15 -65 -25 -14 -10 -44 -21 -67 -24 -23 -3 -54 -15 -69 -27 -14 -11 -42
-23 -63 -27 -20 -4 -43 -13 -52 -21 -9 -7 -40 -17 -68 -22 -30 -5 -61 -17 -74
-30 -13 -11 -35 -21 -50 -21 -14 0 -43 -11 -63 -25 -20 -14 -48 -25 -61 -25
-13 0 -41 -11 -61 -25 -20 -14 -51 -25 -68 -25 -20 0 -38 -8 -52 -25 -12 -14
-32 -25 -45 -25 -13 0 -34 -9 -47 -20 -13 -11 -40 -25 -60 -30 -21 -6 -43 -16
-49 -24 -6 -7 -27 -16 -46 -19 -20 -3 -47 -15 -62 -26 -14 -12 -33 -21 -42
-21 -10 0 -32 -11 -51 -25 -19 -14 -41 -25 -50 -25 -9 0 -31 -11 -50 -25 -19
-14 -40 -25 -47 -25 -8 0 -31 -11 -51 -25 -20 -14 -43 -25 -50 -25 -8 0 -27
-11 -44 -25 -16 -14 -39 -25 -51 -25 -12 0 -33 -12 -46 -25 -13 -14 -33 -25
-45 -25 -13 0 -31 -10 -42 -21 -10 -12 -32 -28 -49 -36 -16 -7 -55 -31 -85
-53 -30 -22 -65 -40 -78 -40 -12 0 -25 -7 -28 -15 -6 -14 -75 -59 -126 -82
-16 -7 -28 -16 -28 -21 0 -5 -25 -25 -56 -43 -65 -40 -136 -102 -248 -217 -90
-93 -185 -248 -194 -317 -2 -22 -15 -61 -28 -87 -22 -44 -24 -59 -24 -212 0
-142 -3 -170 -20 -207 -11 -24 -20 -53 -20 -65 0 -12 -11 -42 -24 -67 -14 -25
-28 -62 -32 -82 -3 -19 -14 -45 -24 -58 -9 -12 -20 -48 -24 -80 -3 -32 -14
-70 -23 -84 -10 -16 -20 -58 -24 -102 -4 -44 -16 -94 -28 -118 -16 -32 -21
-61 -21 -121 0 -65 -4 -87 -25 -126 -20 -37 -25 -62 -25 -119 0 -51 -6 -85
-21 -117 -11 -25 -24 -79 -28 -121 -5 -41 -15 -87 -24 -100 -10 -14 -20 -48
-23 -75 -4 -27 -15 -63 -25 -81 -10 -18 -21 -49 -24 -70 -4 -21 -15 -49 -25
-63 -9 -14 -23 -50 -29 -80 -6 -30 -18 -61 -25 -70 -7 -8 -16 -46 -20 -83 -4
-37 -16 -91 -28 -120 -20 -48 -22 -72 -23 -317 -2 -252 -4 -268 -26 -320 -20
-49 -23 -73 -25 -215 -1 -141 -4 -166 -24 -209 -18 -40 -22 -69 -24 -170 -2
-98 -7 -131 -24 -174 -16 -39 -22 -74 -22 -133 0 -62 -6 -93 -25 -141 -18 -45
-25 -80 -25 -129 0 -45 -7 -83 -20 -115 -11 -26 -24 -83 -29 -128 -5 -54 -15
-93 -30 -116 -15 -25 -21 -52 -21 -95 -1 -43 -8 -74 -25 -110 -18 -36 -25 -67
-25 -108 0 -41 -7 -70 -22 -100 -22 -39 -23 -56 -26 -260 -3 -216 -3 -217 22
-271 l26 -55 0 -406 0 -406 24 -42 c13 -23 27 -53 31 -66 10 -32 95 -140 132
-167 74 -54 153 -47 185 16 9 18 28 45 42 59 14 15 26 30 26 34 0 24 120 169
181 217 26 20 66 59 90 87 24 27 53 60 64 72 39 44 131 121 199 168 38 27 93
72 123 101 30 28 62 52 71 53 9 0 37 16 62 35 25 18 73 53 108 76 34 22 62 45
62 49 0 12 104 79 122 79 9 0 23 11 32 24 8 14 26 27 38 31 33 9 108 49 108
57 0 16 33 38 57 38 15 0 33 10 45 25 19 24 24 25 131 25 105 0 112 -1 138
-26 22 -21 38 -26 100 -30 41 -3 81 -4 89 -4 8 1 47 2 87 3 61 2 75 6 97 27
19 17 36 23 60 22 24 -2 43 6 72 29 30 24 45 29 67 25 31 -6 65 7 84 33 8 12
26 15 67 14 46 -2 60 1 84 22 23 19 41 25 80 25 37 0 59 7 88 27 31 21 49 26
88 25 39 -2 58 4 90 25 40 27 43 27 216 28 182 1 216 -4 227 -31 12 -31 -25
-44 -119 -44 -61 0 -98 -5 -119 -16 -19 -9 -61 -16 -108 -17 -89 -2 -116 -16
-100 -50 12 -27 81 -58 100 -46 21 13 150 1 168 -15 9 -8 48 -20 86 -27 39 -7
81 -21 94 -31 13 -10 39 -18 57 -18 21 0 40 -8 52 -21 11 -11 43 -26 72 -34
29 -8 60 -21 69 -29 10 -9 27 -16 39 -16 11 0 34 -11 50 -25 18 -15 42 -25 61
-25 21 0 38 -8 53 -25 15 -17 32 -25 53 -25 18 0 53 -11 79 -25 54 -29 133
-35 142 -11 3 9 -10 30 -31 52 -21 20 -57 67 -80 103 -59 91 -130 152 -193
166 -18 3 -37 15 -42 25 -5 10 -26 21 -45 24 -40 8 -54 28 -35 51 16 20 122
19 173 0 20 -8 52 -21 70 -28 45 -17 142 -119 178 -186 17 -31 39 -65 49 -76
10 -11 22 -32 25 -47 10 -38 154 -198 178 -198 4 0 23 -11 43 -25 20 -14 46
-25 58 -25 12 0 32 -9 46 -20 15 -11 41 -20 63 -20 27 0 43 -7 58 -24 12 -14
38 -27 59 -31 21 -4 53 -17 71 -31 18 -13 40 -24 48 -24 46 0 205 -110 186
-128 -5 -6 -35 -13 -65 -16 -49 -6 -59 -4 -89 19 -24 17 -48 25 -75 25 -29 0
-54 9 -85 30 -34 23 -55 30 -94 30 -38 0 -56 5 -73 21 -21 19 -35 21 -181 23
-140 2 -163 5 -200 24 -33 17 -60 22 -125 22 -72 0 -88 3 -120 25 -26 17 -50
25 -82 25 -33 0 -52 6 -74 25 -17 14 -42 25 -60 25 -21 0 -35 8 -46 25 -11 17
-26 25 -46 25 -18 0 -33 7 -39 19 -6 10 -32 33 -57 50 -65 43 -141 44 -189 3
-18 -15 -52 -38 -76 -52 -23 -14 -63 -45 -88 -70 -51 -50 -102 -83 -146 -94
-15 -4 -39 -15 -51 -25 -14 -11 -50 -21 -86 -25 -60 -7 -164 -48 -180 -71 -4
-5 -8 -31 -8 -56 0 -50 -45 -152 -81 -185 -23 -21 -79 -56 -124 -77 -16 -8
-50 -35 -75 -61 -24 -25 -52 -46 -62 -46 -10 0 -26 -8 -36 -18 -10 -9 -48 -43
-84 -75 -37 -32 -70 -67 -73 -77 -4 -11 -18 -23 -33 -27 -31 -7 -109 -47 -132
-67 -8 -8 -26 -17 -39 -21 -38 -12 -141 -125 -141 -156 0 -14 -11 -36 -25 -49
-14 -13 -25 -34 -25 -46 0 -15 -48 -70 -155 -178 -184 -185 -235 -248 -235
-285 0 -36 -63 -117 -98 -126 -15 -3 -36 -15 -47 -25 -14 -12 -44 -20 -97 -25
l-76 -7 -41 37 c-47 43 -54 85 -21 128 11 14 20 35 20 46 0 12 9 29 19 39 87
78 154 100 211 67 51 -29 97 -6 80 41 -6 14 -10 59 -10 99 l0 74 -50 43 c-55
47 -69 84 -51 132 16 40 442 458 523 513 60 40 86 62 123 102 17 19 87 71 95
71 18 0 90 55 96 72 3 10 16 21 29 24 13 3 29 12 35 19 6 8 24 17 40 20 17 4
32 15 36 27 3 11 21 26 39 34 19 7 36 18 40 24 3 5 15 10 25 10 17 0 26 6 58
45 7 8 26 15 41 15 20 0 34 8 45 25 12 18 25 25 49 25 23 0 41 8 58 26 16 17
31 24 46 21 14 -2 36 5 55 19 18 14 46 24 65 24 23 0 42 9 64 31 24 23 38 30
58 26 34 -7 86 16 101 44 18 33 -10 49 -82 49 -46 0 -71 -7 -116 -30 -45 -25
-64 -30 -93 -25 -30 5 -42 2 -68 -21 -24 -20 -43 -27 -71 -26 -30 1 -41 -3
-54 -23 -13 -20 -25 -25 -55 -25 -21 0 -44 -6 -51 -14 -6 -8 -34 -22 -61 -31
-27 -9 -51 -20 -54 -25 -3 -5 -27 -16 -54 -25 -27 -9 -55 -22 -61 -30 -6 -8
-26 -17 -43 -21 -18 -3 -43 -14 -57 -24 -14 -9 -38 -20 -54 -24 -16 -4 -38
-18 -48 -32 -15 -18 -28 -24 -52 -22 -19 1 -47 -7 -68 -20 -19 -12 -42 -22
-50 -22 -9 0 -26 -8 -39 -19 -13 -10 -35 -22 -49 -26 -14 -4 -35 -18 -47 -31
-12 -13 -31 -24 -42 -24 -11 0 -28 -11 -37 -25 -9 -13 -26 -27 -37 -30 -47
-14 -106 -50 -116 -72 -6 -13 -16 -23 -23 -23 -21 0 -111 -50 -136 -76 -13
-13 -33 -24 -46 -24 -14 0 -30 -10 -40 -25 -9 -14 -23 -25 -31 -25 -22 0 -110
-47 -130 -70 -10 -11 -28 -20 -40 -20 -13 0 -30 -11 -39 -24 -16 -25 -34 -37
-111 -75 -36 -18 -295 -269 -295 -287 0 -12 -52 -118 -66 -134 -7 -9 -18 -38
-24 -65 -6 -28 -18 -60 -26 -73 -8 -13 -18 -46 -21 -75 -5 -50 -9 -55 -98
-142 -58 -57 -97 -103 -104 -124 -6 -19 -17 -42 -25 -50 -7 -9 -16 -38 -19
-65 -2 -26 -14 -61 -26 -77 -12 -15 -21 -35 -21 -43 0 -9 -12 -30 -28 -48 -15
-18 -38 -53 -51 -78 -13 -25 -34 -56 -47 -70 -12 -14 -42 -55 -67 -92 l-45
-68 2171 0 c1747 1 2168 3 2149 13 -12 7 -29 23 -38 35 -14 20 -23 22 -123 22
-74 0 -120 -5 -144 -15 -46 -19 -152 -19 -206 0 -23 8 -69 13 -102 12 -48 -2
-62 2 -70 15 -5 9 -24 21 -43 28 -26 8 -35 19 -45 49 -8 27 -8 47 -1 66 5 14
10 45 10 69 0 32 6 48 24 66 14 12 28 35 31 51 4 15 13 33 21 40 8 6 14 15 14
20 0 5 42 51 93 102 167 165 193 187 218 187 13 0 38 9 54 20 17 11 46 20 65
20 20 0 63 7 95 16 105 27 284 46 370 40 75 -6 120 -2 287 23 55 9 83 7 160
-8 51 -10 122 -18 157 -16 60 2 67 5 98 38 21 24 33 47 33 66 0 15 8 39 19 52
11 14 20 47 23 80 3 43 11 65 32 90 22 26 26 39 22 64 -5 23 1 45 19 79 16 30
25 63 25 93 0 40 5 50 45 92 25 25 51 54 57 64 12 16 45 17 433 20 414 2 421
2 462 24 40 22 54 23 237 23 188 0 195 -1 237 -25 38 -21 56 -25 136 -25 110
0 123 -8 123 -80 0 -40 -4 -52 -25 -68 -15 -12 -25 -30 -25 -46 0 -15 -10 -35
-25 -48 -14 -12 -27 -36 -31 -54 -3 -18 -15 -40 -25 -50 -10 -9 -19 -22 -19
-28 0 -6 -11 -32 -25 -58 -14 -26 -25 -55 -25 -64 0 -9 -11 -29 -25 -46 -14
-16 -25 -42 -25 -58 0 -19 -9 -35 -25 -48 -18 -14 -25 -29 -25 -55 0 -19 -9
-45 -20 -60 -12 -15 -20 -40 -20 -62 0 -28 -7 -43 -30 -63 -23 -20 -30 -35
-30 -63 0 -21 -8 -47 -20 -62 -12 -15 -20 -40 -20 -62 0 -25 -7 -43 -23 -58
-15 -13 -27 -39 -31 -66 -4 -24 -16 -55 -26 -69 -11 -13 -20 -40 -20 -58 0
-20 -8 -40 -19 -51 -11 -10 -23 -31 -27 -48 -12 -51 -20 -55 -108 -54 -74 2
-84 4 -114 30 -19 17 -44 29 -61 29 -16 0 -39 8 -52 18 -13 10 -55 33 -92 52
-38 19 -75 43 -84 52 -9 10 -27 18 -40 18 -13 0 -35 11 -48 25 l-23 26 -212 0
-211 -1 -44 -36 c-25 -20 -42 -40 -39 -45 3 -5 20 -15 37 -23 31 -13 107 -87
107 -105 0 -19 -126 -135 -155 -142 -16 -4 1537 -7 3453 -8 1915 -1 3482 3
3482 7 0 4 -5 13 -11 19 -6 6 -15 30 -20 54 -6 24 -17 51 -25 60 -8 9 -18 38
-23 65 -4 27 -17 67 -29 89 -12 22 -22 55 -22 74 0 18 -9 48 -19 65 -10 17
-22 60 -26 96 -4 36 -16 81 -26 101 -11 22 -21 71 -25 120 -4 55 -13 95 -25
115 -12 20 -19 50 -19 85 0 39 -7 68 -25 101 -18 34 -25 63 -25 105 -1 44 -7
68 -25 98 -18 29 -25 54 -25 93 0 40 -6 62 -25 90 -17 25 -25 50 -25 80 0 23
-11 69 -25 102 -17 39 -25 78 -25 115 0 38 -7 69 -22 98 -17 33 -23 68 -29
162 -4 75 -14 139 -25 170 -17 47 -18 103 -19 935 0 487 3 896 8 908 7 23 71
109 92 124 21 16 72 7 105 -17 19 -14 42 -25 53 -25 28 0 80 -43 210 -175 149
-150 177 -193 177 -267 0 -38 -6 -63 -18 -79 -10 -13 -34 -56 -52 -96 -18 -40
-41 -80 -51 -89 -11 -9 -19 -25 -19 -34 0 -10 -12 -34 -26 -55 -14 -21 -26
-50 -26 -64 -1 -32 79 -147 124 -179 80 -56 115 -76 148 -85 19 -5 46 -17 60
-27 14 -9 44 -20 67 -23 23 -3 54 -14 69 -26 16 -12 41 -21 63 -21 20 0 50 -9
66 -20 17 -12 44 -27 60 -34 44 -20 115 -74 122 -94 4 -9 17 -30 30 -45 14
-18 23 -42 23 -64 0 -20 12 -61 26 -92 15 -31 34 -71 43 -90 19 -42 100 -125
142 -147 17 -8 39 -24 50 -35 10 -10 27 -19 38 -19 10 0 24 -7 31 -15 15 -18
98 -75 109 -75 23 0 189 -167 318 -320 48 -58 104 -123 123 -144 19 -22 89
-100 155 -174 66 -75 165 -175 221 -223 56 -48 122 -106 147 -129 44 -42 51
-47 125 -87 23 -13 45 -29 49 -36 4 -7 37 -27 73 -46 36 -18 76 -42 89 -52 13
-11 29 -19 37 -19 7 0 26 -11 42 -25 17 -14 39 -25 50 -25 11 0 33 -11 49 -23
15 -13 40 -27 55 -30 16 -4 101 -81 216 -194 295 -293 309 -305 422 -380 14
-9 34 -24 45 -34 11 -9 33 -20 49 -23 16 -4 43 -19 60 -33 26 -22 37 -25 82
-21 35 3 62 12 82 29 17 13 49 35 73 49 57 34 233 235 278 318 16 29 121 134
168 170 22 15 45 22 79 22 27 0 67 7 91 16 39 15 45 15 83 0 22 -9 64 -16 93
-16 51 0 53 1 119 69 45 46 77 70 98 75 17 3 45 16 62 28 36 25 152 34 232 16
72 -15 150 5 199 51 20 19 37 42 37 51 0 8 9 30 20 48 l20 33 -21 42 c-26 53
-87 117 -111 117 -10 0 -50 -31 -90 -69 -101 -96 -147 -131 -173 -131 -29 0
-86 20 -106 36 -9 8 -39 14 -70 14 -39 0 -66 7 -97 25 -23 13 -59 27 -79 31
-40 8 -92 34 -136 71 -41 33 -122 32 -173 -2 -20 -14 -45 -25 -55 -25 -10 0
-23 -9 -28 -19 -6 -10 -25 -24 -43 -30 -17 -6 -40 -19 -50 -28 -29 -26 -202
-27 -244 -2 -40 24 -62 24 -99 -1 -16 -11 -44 -20 -61 -20 -17 0 -38 -8 -48
-19 -9 -10 -34 -21 -55 -25 -21 -3 -51 -16 -66 -28 -20 -16 -43 -22 -79 -23
-28 -1 -80 -11 -115 -23 -81 -28 -86 -27 -173 3 -39 14 -85 25 -101 25 -71 0
-183 115 -213 220 -7 25 -20 65 -29 90 -20 54 -16 161 10 230 9 25 19 86 22
135 5 81 9 95 40 143 19 29 40 55 46 58 7 2 164 5 349 6 185 2 340 6 344 11 4
4 -5 20 -19 35 -22 23 -27 37 -27 78 0 42 5 55 26 75 14 13 30 34 35 46 4 13
34 42 66 65 32 24 68 53 81 65 15 16 34 23 62 23 22 0 57 9 77 20 46 25 50 25
93 1 53 -28 124 -36 144 -16 9 9 16 25 16 35 0 18 -24 50 -38 50 -4 0 -27 25
-52 56 -52 66 -145 131 -198 140 -31 5 -43 1 -76 -25 -21 -17 -47 -31 -57 -31
-10 0 -38 -17 -62 -38 -92 -77 -140 -112 -154 -112 -8 0 -26 -9 -40 -20 -14
-11 -38 -20 -52 -20 -15 0 -42 -11 -61 -25 -19 -14 -40 -25 -48 -25 -8 0 -42
-22 -77 -50 -35 -27 -67 -50 -72 -50 -5 0 -20 -11 -33 -25 -38 -40 -80 -34
-122 18 -49 59 -54 80 -28 124 12 20 24 59 27 87 3 28 16 69 29 92 13 22 24
52 24 66 0 14 8 36 19 49 10 13 22 35 26 49 4 14 18 38 31 53 13 16 24 33 24
38 0 18 78 114 141 174 64 60 110 97 160 125 105 59 179 135 179 183 0 30 -25
79 -65 129 -12 14 -25 43 -28 65 -4 21 -16 56 -27 78 -11 21 -20 50 -20 62 0
25 -45 116 -79 159 -12 15 -21 33 -21 41 0 7 -22 42 -48 76 -26 34 -58 78 -70
98 -12 19 -31 44 -43 55 -18 17 -139 248 -139 267 0 4 -9 20 -19 35 -11 15
-22 43 -25 63 -4 21 -13 42 -21 49 -8 6 -19 36 -25 65 -6 29 -18 59 -26 66 -8
6 -22 30 -32 53 -35 77 -126 168 -236 235 -30 18 -61 39 -67 47 -6 8 -20 14
-30 14 -9 0 -75 48 -146 106 -128 106 -286 266 -420 424 -39 47 -121 131 -182
188 -106 99 -181 192 -181 224 0 8 -11 36 -25 62 -18 34 -25 62 -25 104 0 39
-7 70 -21 97 -13 24 -25 72 -31 120 -5 43 -15 86 -23 95 -7 8 -21 48 -29 88
-8 40 -22 82 -30 94 -9 12 -16 36 -16 53 0 17 -11 46 -25 65 -14 19 -25 42
-25 52 0 11 -9 36 -20 56 -10 20 -27 53 -36 72 -43 90 -64 129 -74 135 -5 3
-10 15 -10 26 0 10 -9 28 -20 39 -11 11 -34 46 -51 78 -17 31 -41 68 -53 82
-12 14 -48 59 -79 100 -31 41 -69 86 -83 100 -15 14 -58 66 -95 115 -38 50
-88 115 -112 145 -24 30 -58 80 -76 111 -17 31 -40 64 -51 74 -11 10 -20 26
-20 37 0 10 -9 27 -20 38 -10 10 -34 47 -51 82 -18 35 -43 76 -56 91 -13 16
-23 37 -23 46 0 10 -8 29 -19 42 -10 13 -22 35 -26 49 -4 14 -15 41 -25 60
-10 19 -24 52 -30 72 -6 20 -17 42 -25 48 -8 7 -17 28 -21 49 -4 20 -15 50
-25 67 -11 17 -19 38 -19 46 0 8 -11 36 -25 62 -14 26 -28 66 -31 89 -4 23
-15 56 -24 72 -10 17 -21 53 -25 80 -4 28 -14 57 -21 66 -8 9 -19 42 -25 74
-6 33 -19 70 -30 83 -10 14 -19 39 -19 57 0 18 -11 52 -23 76 -13 24 -26 63
-29 86 -3 23 -15 54 -27 69 -12 15 -21 40 -21 56 0 16 -11 48 -24 71 -13 23
-26 57 -30 75 -3 19 -15 45 -26 59 -11 14 -20 33 -20 43 0 15 -33 82 -99 202
-28 50 -148 176 -191 199 -19 11 -55 33 -80 49 -25 17 -61 37 -80 46 -19 9
-45 25 -59 35 -13 10 -31 19 -41 19 -10 0 -28 8 -41 18 -13 11 -37 22 -54 26
-16 4 -39 16 -51 27 -11 10 -42 23 -68 28 -27 5 -61 18 -77 30 -19 14 -43 21
-76 21 -31 0 -60 7 -82 21 -20 12 -58 22 -89 25 -32 2 -70 13 -91 25 -27 16
-61 23 -131 28 -68 5 -103 13 -124 26 -23 16 -49 20 -130 21 -80 1 -113 6
-156 24 -46 19 -76 23 -180 25 -109 2 -131 5 -170 25 -31 16 -66 24 -111 26
-46 2 -78 10 -100 23 -19 12 -51 21 -73 21 -22 0 -54 9 -75 22 -21 13 -60 25
-97 29 -41 4 -72 14 -90 28 -19 15 -41 21 -76 21 -34 0 -66 8 -97 24 -27 15
-69 26 -102 28 -38 3 -65 11 -84 26 -21 17 -41 22 -87 22 -43 0 -72 7 -108 25
-38 19 -63 24 -119 24 -55 -1 -78 4 -105 20 -18 12 -41 21 -50 21 -24 0 -90
64 -138 134 l-42 61 1 180 c0 110 8 231 18 308 29 213 12 257 -100 257 -57 0
-68 -3 -87 -25 -16 -19 -31 -25 -61 -25 -29 0 -46 -6 -63 -25 -18 -19 -33 -25
-67 -25 -34 0 -48 -5 -65 -25 -16 -19 -32 -25 -60 -25 -26 0 -45 -7 -57 -20
-10 -11 -30 -20 -44 -21 -14 0 -57 -18 -96 -39 -38 -22 -84 -46 -100 -54 -17
-8 -39 -24 -49 -35 -11 -12 -29 -21 -42 -21 -14 0 -31 -12 -44 -30 -16 -22
-29 -30 -52 -30 -18 0 -36 -8 -46 -20 -15 -17 -34 -21 -147 -27 -138 -7 -349
-6 -634 3 -165 5 -175 6 -206 30 -22 17 -45 24 -75 24 -31 0 -50 7 -73 26 -21
18 -37 24 -54 19 -17 -4 -30 1 -49 22 -18 20 -33 27 -54 25 -21 -3 -33 4 -50
28 -16 22 -27 29 -41 25 -14 -5 -28 2 -47 22 -35 38 -94 73 -120 73 -12 0 -26
9 -32 19 -5 11 -40 51 -78 89 -124 127 -117 106 -118 339 -1 198 -1 203 -29
264 -22 51 -26 70 -21 109 6 42 3 52 -19 79 -16 18 -29 50 -34 81 -4 27 -15
58 -25 68 -9 11 -16 36 -16 59 0 33 -5 45 -25 60 -17 12 -28 32 -32 58 -3 22
-14 51 -25 64 -11 15 -18 40 -18 67 0 33 -5 46 -22 59 -19 13 -24 28 -29 88
-4 39 -17 99 -29 132 -27 76 -24 157 8 202 15 22 22 46 22 79 0 33 7 59 23 83
20 31 47 74 82 132 26 42 52 76 72 92 13 10 23 29 23 41 0 12 12 33 26 47 41
39 25 96 -56 202 -22 28 -23 34 -10 302 3 50 -18 117 -45 145 -16 17 -34 30
-40 30 -16 0 -75 75 -75 94 0 9 -9 39 -20 68 -25 66 -25 83 1 124 13 21 20 48
19 71 -3 70 0 83 25 105 14 12 25 31 25 42 1 26 163 196 187 196 10 0 32 9 48
20 17 11 39 20 49 20 11 0 35 12 53 26 33 25 41 26 153 27 114 1 119 0 150
-26 45 -38 127 -38 182 0 l39 26 428 1 c382 1 431 3 447 17 11 9 37 26 59 37
47 23 70 47 119 121 30 44 38 67 44 127 13 122 0 209 -44 289 -40 73 -167 210
-238 255 -21 14 -48 34 -60 45 -11 12 -48 34 -81 50 -33 17 -75 40 -94 52 -19
13 -44 23 -55 23 -12 0 -37 11 -56 25 -19 14 -48 25 -65 25 -17 0 -46 11 -65
25 -26 19 -46 25 -85 25 -36 0 -66 8 -99 25 -36 19 -62 25 -112 25 -49 0 -76
6 -114 25 -42 21 -63 25 -142 25 -97 1 -212 20 -231 39 -15 15 -88 13 -112 -4z
m-742 -4054 c38 -39 57 -68 57 -84 0 -13 10 -37 23 -53 28 -36 32 -144 5 -170
-15 -15 -18 -14 -46 6 -17 13 -34 36 -37 51 -7 32 -61 79 -117 102 -38 16 -38
16 -38 76 0 53 4 64 31 96 17 19 39 35 49 35 9 0 42 -27 73 -59z m2 -312 c20
-13 43 -37 51 -54 33 -66 53 -97 78 -120 20 -18 26 -34 26 -65 0 -52 -13 -76
-45 -84 -35 -9 -32 -36 11 -87 43 -52 40 -78 -14 -126 -31 -27 -45 -32 -88
-33 -49 0 -52 2 -82 44 -18 24 -32 48 -32 53 0 4 14 37 32 72 23 43 29 65 21
68 -29 10 -63 46 -63 65 0 12 -11 36 -25 54 -14 18 -25 40 -25 49 0 8 -17 32
-37 51 -86 81 -103 100 -103 116 0 23 11 25 142 24 105 -2 119 -4 153 -27z
m3086 -920 c19 -30 8 -59 -41 -107 -38 -38 -50 -56 -50 -80 0 -23 -8 -36 -30
-52 -16 -12 -30 -27 -30 -35 0 -21 -49 -74 -84 -91 -17 -9 -41 -27 -52 -41
-21 -24 -27 -26 -134 -27 -106 -2 -112 -1 -130 21 -10 13 -29 23 -42 23 -16 0
-37 14 -61 42 -34 38 -37 48 -37 100 0 52 3 60 23 67 13 5 29 16 36 25 9 10
29 16 56 16 32 0 52 7 73 25 23 19 41 25 80 25 35 0 57 6 76 21 17 13 51 24
93 29 47 6 71 14 82 28 21 25 34 29 104 27 38 -1 62 -7 68 -16z m-2835 -1580
c11 -11 33 -19 48 -19 16 0 36 -10 50 -25 14 -15 34 -25 50 -25 15 0 36 -10
49 -24 23 -25 85 -41 117 -31 11 3 34 28 51 56 l32 49 84 0 c77 0 86 -2 107
-25 16 -17 38 -27 72 -31 27 -4 58 -15 69 -24 11 -10 31 -21 44 -25 27 -8 92
-51 103 -68 4 -7 8 -32 8 -55 0 -36 -5 -48 -29 -70 l-30 -25 38 -39 c33 -32
43 -37 69 -32 25 5 33 2 47 -20 12 -18 26 -26 46 -26 20 0 35 -9 54 -35 15
-19 63 -60 108 -92 72 -51 124 -95 204 -170 22 -21 23 -28 23 -157 0 -124 -2
-136 -20 -146 -10 -6 -24 -27 -30 -48 -7 -29 -18 -42 -44 -54 -25 -12 -36 -14
-45 -5 -17 17 -13 56 9 84 17 22 20 41 20 137 l0 112 -59 57 c-32 31 -65 57
-73 57 -8 0 -25 -11 -38 -25 -16 -17 -34 -25 -58 -25 -24 0 -42 -8 -58 -25
-13 -14 -32 -25 -42 -25 -39 0 -54 -33 -48 -107 13 -159 14 -148 -17 -151 -19
-2 -29 2 -34 15 -3 10 -19 33 -35 51 -24 28 -28 41 -28 96 0 55 4 68 30 101
17 21 30 44 30 53 0 8 9 30 21 48 23 38 20 57 -16 97 -28 30 -45 28 -45 -4 0
-12 -13 -33 -30 -47 -19 -17 -30 -36 -30 -53 0 -15 -8 -32 -20 -40 -11 -8 -22
-28 -24 -46 -2 -17 -13 -44 -25 -58 -11 -15 -21 -40 -21 -55 0 -15 -10 -36
-24 -49 -14 -13 -26 -39 -30 -63 -4 -22 -16 -52 -26 -66 -15 -18 -20 -40 -20
-83 0 -58 0 -59 40 -79 23 -12 44 -29 47 -38 4 -9 19 -32 35 -50 15 -18 28
-41 28 -50 0 -24 19 -42 46 -42 25 0 36 20 23 41 -31 49 21 139 80 139 47 0
129 -56 140 -96 5 -19 19 -46 30 -60 16 -21 21 -41 21 -91 0 -51 5 -70 23 -94
l22 -31 7 -576 c3 -317 11 -622 17 -677 24 -225 28 -393 26 -1095 -3 -701 -4
-740 -24 -834 -14 -64 -21 -136 -21 -203 0 -102 -1 -105 -32 -144 -38 -47 -64
-51 -73 -10 -3 15 -17 38 -30 50 -17 14 -25 31 -25 55 0 18 -9 45 -21 59 -11
15 -23 44 -26 64 -3 21 -17 48 -30 60 -13 12 -23 34 -23 49 0 15 -9 41 -19 58
-10 17 -22 47 -26 66 -4 19 -16 45 -27 57 -11 11 -22 39 -25 62 -3 22 -14 48
-24 57 -11 9 -19 29 -19 44 0 15 -11 48 -25 74 -14 26 -25 59 -25 73 0 15 -11
36 -25 49 -17 15 -25 34 -25 56 0 18 -12 51 -25 73 -14 22 -25 52 -25 66 0 15
-11 35 -25 47 -18 16 -25 32 -25 58 0 24 -8 46 -25 66 -15 18 -25 42 -25 62 0
19 -10 46 -25 66 -15 21 -25 47 -25 68 0 22 -9 45 -25 64 -16 18 -25 42 -25
62 0 20 -8 40 -19 50 -12 11 -22 38 -26 69 -5 31 -15 57 -26 66 -11 9 -23 38
-28 64 -5 26 -16 56 -25 66 -9 10 -16 35 -16 58 0 29 -6 46 -25 63 -20 19 -25
33 -25 70 0 37 -5 51 -25 70 -16 15 -25 34 -25 54 0 17 -11 52 -25 78 -14 26
-25 59 -25 74 0 14 -11 39 -25 56 -18 21 -25 41 -25 70 0 28 -7 49 -25 70 -18
21 -25 41 -25 72 0 32 -6 48 -25 66 -19 18 -25 33 -25 68 0 32 -7 52 -25 74
-18 21 -25 41 -25 72 0 29 -8 52 -25 76 -16 22 -25 47 -25 71 0 21 -7 44 -15
53 -20 20 -35 61 -35 98 0 16 -9 41 -20 55 -13 17 -20 41 -20 69 0 31 -7 51
-26 73 -18 22 -27 46 -31 88 -3 34 -13 66 -23 78 -11 12 -19 42 -22 76 -3 40
-11 62 -26 77 -17 17 -22 34 -22 75 0 44 -4 58 -25 77 -21 19 -25 33 -25 78 0
46 -4 59 -25 78 -29 26 -34 84 -10 104 34 28 98 -18 220 -160 39 -45 78 -70
94 -61 6 4 14 25 18 47 3 21 17 60 30 86 19 40 22 57 17 102 -6 50 -4 56 20
77 14 12 26 30 26 39 0 29 38 68 94 95 30 15 62 35 72 46 9 10 23 19 31 19 7
0 22 9 34 21 19 19 20 30 17 140 -4 141 -3 141 92 133 48 -4 70 -2 84 9 26 19
16 31 -52 63 -31 15 -72 44 -91 66 -18 21 -50 47 -70 58 -40 20 -186 169 -203
206 -6 12 -21 27 -34 33 -28 12 -32 46 -7 59 20 12 69 -3 99 -29z m-533 -255
c35 -34 37 -38 38 -102 0 -37 2 -101 3 -142 4 -99 -4 -120 -47 -120 -29 0 -46
8 -97 47 -2 2 -7 32 -11 68 -3 35 -16 82 -28 105 -32 61 -28 97 16 142 47 49
76 49 126 2z m1985 -126 c7 -7 12 -19 12 -27 0 -18 45 -86 78 -119 12 -12 22
-30 22 -40 0 -17 98 -130 196 -227 115 -112 167 -155 191 -155 13 0 35 -11 49
-25 17 -17 36 -25 59 -25 24 0 41 -8 60 -27 l25 -28 168 0 c159 0 169 -1 196
-22 16 -13 37 -23 46 -23 43 0 45 -18 45 -329 0 -163 -3 -422 -6 -576 -6 -254
-8 -285 -28 -333 -18 -44 -21 -73 -21 -185 0 -118 -3 -139 -25 -192 -22 -53
-25 -75 -25 -187 0 -107 -3 -136 -22 -180 -17 -44 -22 -82 -28 -223 -5 -137
-11 -181 -28 -229 -20 -53 -22 -79 -21 -240 0 -162 -2 -188 -22 -246 -20 -58
-23 -87 -24 -265 -2 -176 -5 -210 -25 -285 -21 -75 -24 -109 -26 -290 -1 -185
-4 -211 -24 -265 -20 -52 -23 -81 -25 -230 -1 -161 -10 -225 -36 -291 -7 -17
-13 -101 -14 -209 -2 -162 -4 -185 -25 -235 -21 -50 -23 -72 -25 -240 -2 -165
-4 -191 -25 -245 -20 -54 -23 -80 -25 -255 -2 -163 -6 -208 -24 -274 -16 -60
-21 -108 -21 -197 l0 -118 -29 -20 c-35 -25 -43 -26 -84 -5 -40 21 -47 31 -47
70 0 17 -8 38 -19 48 -10 9 -22 38 -26 64 -4 26 -17 59 -31 75 -13 16 -24 41
-24 56 0 15 -9 36 -20 46 -11 10 -20 30 -20 44 0 14 -11 44 -25 66 -13 22 -25
54 -25 71 0 19 -9 39 -25 54 -15 14 -25 35 -25 50 0 15 -11 48 -25 74 -14 26
-25 57 -25 70 0 12 -11 33 -25 46 -16 15 -25 34 -25 53 0 16 -11 42 -25 59
-16 18 -25 42 -25 62 0 19 -9 45 -21 59 -11 15 -23 43 -26 63 -3 20 -17 47
-29 60 -17 16 -24 35 -24 60 0 20 -9 48 -21 65 -11 16 -23 45 -26 64 -3 20
-15 42 -27 51 l-21 14 0 1443 0 1442 -23 160 c-23 153 -24 184 -23 695 l2 535
24 35 c14 20 25 45 25 56 0 11 11 31 25 44 14 13 25 28 25 33 0 19 52 78 92
105 22 15 51 34 64 43 30 20 69 77 78 114 4 16 18 39 32 52 15 13 24 33 24 51
0 18 10 38 25 52 25 23 26 28 24 139 -2 98 -5 117 -21 133 -11 11 -26 35 -34
53 -14 34 -83 101 -145 141 -55 34 -239 217 -239 236 0 9 15 28 33 42 25 21
43 26 88 26 30 0 60 -5 67 -12z"/>
<path d="M10819 14381 c-65 -41 -116 -116 -128 -189 -15 -94 1 -199 40 -258
46 -70 77 -101 137 -140 92 -60 106 -46 99 98 -3 57 -12 132 -21 168 -10 40
-16 111 -16 185 0 170 -19 193 -111 136z"/>
<path d="M10061 14066 c-26 -19 -47 -26 -81 -26 -37 0 -52 -5 -70 -25 -15 -16
-34 -25 -53 -25 -16 0 -42 -11 -59 -25 -18 -15 -42 -25 -62 -25 -19 0 -46 -10
-66 -25 -19 -14 -47 -25 -62 -25 -21 0 -32 -7 -40 -25 -9 -20 -18 -25 -48 -25
-26 0 -43 -7 -60 -25 -19 -20 -33 -25 -70 -25 -37 0 -51 -5 -68 -25 -15 -17
-32 -25 -55 -25 -26 0 -36 -6 -45 -25 -6 -14 -16 -25 -21 -25 -16 0 -67 -53
-84 -85 -8 -16 -27 -41 -41 -54 -14 -14 -26 -31 -26 -38 0 -7 31 -45 69 -85
78 -81 77 -80 264 -78 95 1 112 -2 144 -21 23 -15 49 -22 76 -21 29 2 51 -5
78 -24 33 -23 48 -26 131 -27 80 -2 97 1 123 19 17 12 48 23 70 26 42 6 113
47 130 76 6 9 30 39 55 65 25 27 62 78 82 115 21 37 45 80 54 96 14 25 16 54
12 190 -3 99 -9 170 -17 184 -20 37 -52 50 -141 57 -81 6 -87 5 -119 -19z"/>
<path d="M11080 12803 c-8 -3 -26 -14 -39 -24 -13 -11 -34 -19 -47 -19 -13 0
-32 -8 -42 -18 -22 -22 -110 -72 -127 -72 -6 0 -24 -13 -38 -30 -15 -16 -36
-30 -48 -30 -24 0 -99 -58 -99 -77 0 -8 11 -25 25 -38 27 -28 87 -33 160 -14
117 30 112 30 165 9 29 -11 74 -20 105 -20 42 0 60 -5 83 -24 19 -17 36 -23
50 -19 15 4 29 -3 49 -24 53 -56 84 -45 48 17 -8 14 -15 34 -15 45 0 11 -9 31
-20 45 -11 14 -20 38 -20 54 0 16 -15 73 -32 127 -32 95 -34 100 -68 109 -38
11 -67 12 -90 3z"/>
<path d="M11334 12238 c-16 -12 -37 -33 -47 -45 -16 -19 -26 -22 -92 -20 -70
2 -76 0 -100 -25 -17 -19 -36 -28 -56 -28 -21 0 -37 -8 -51 -25 -14 -18 -29
-25 -53 -25 -18 0 -38 -7 -45 -15 -6 -8 -46 -31 -88 -51 -43 -21 -90 -48 -106
-61 -21 -18 -36 -22 -57 -18 -20 5 -43 -1 -76 -18 -26 -13 -66 -33 -88 -43
-38 -19 -158 -130 -202 -188 -30 -39 -31 -96 -3 -96 11 0 23 7 26 15 4 9 31
32 60 51 30 20 63 49 75 65 11 16 27 29 35 29 24 0 114 51 125 71 5 11 20 19
33 19 13 0 37 14 55 30 23 22 37 29 54 25 16 -4 29 1 47 19 17 19 34 26 60 26
23 0 49 9 70 25 26 19 46 25 86 25 38 0 61 6 88 25 32 21 48 25 115 25 84 0
75 -4 183 80 31 24 43 70 30 115 -11 38 -39 43 -78 13z"/>
<path d="M21802 11249 c-124 -16 -294 -129 -493 -328 -219 -219 -433 -480
-894 -1091 -350 -463 -526 -685 -658 -832 -90 -99 -117 -126 -117 -115 0 2 29
64 64 138 107 223 192 457 272 747 26 98 31 128 22 134 -14 10 -224 5 -248 -6
-8 -3 -38 -52 -67 -109 -127 -248 -328 -569 -481 -766 -73 -94 -142 -175 -142
-167 0 2 30 68 66 147 248 541 383 959 414 1284 35 377 -125 587 -391 509 -74
-22 -134 -58 -203 -123 -50 -49 -115 -146 -104 -157 3 -2 33 12 69 30 89 47
128 53 181 27 88 -42 123 -139 122 -341 -2 -382 -194 -1073 -429 -1541 l-44
-87 32 -13 c45 -19 123 -15 180 10 152 66 315 223 542 521 48 63 84 104 80 90
-19 -64 -134 -320 -205 -456 l-78 -152 25 -11 c51 -23 109 -24 180 -3 138 43
300 161 523 382 247 245 454 493 1120 1340 118 150 273 343 345 429 160 193
384 419 442 446 24 11 43 23 43 27 0 24 -98 46 -168 37z"/>
<path d="M31598 11249 c-551 -45 -1228 -361 -1656 -774 -147 -141 -237 -257
-297 -380 -102 -209 -102 -367 1 -506 l38 -52 17 71 c33 134 121 295 266 485
91 119 341 374 463 471 223 177 567 372 798 451 57 19 107 35 111 35 4 0 -65
-73 -154 -162 -238 -239 -511 -569 -995 -1198 -555 -723 -812 -1012 -946
-1067 -24 -10 -44 -21 -44 -24 0 -14 93 -31 138 -25 64 8 209 81 307 154 99
74 263 225 386 357 244 261 460 522 1026 1246 393 502 633 765 770 845 23 14
43 30 43 35 0 16 -58 39 -112 43 -29 2 -101 0 -160 -5z"/>
<path d="M28190 11244 c-14 -2 -65 -9 -115 -15 -179 -23 -434 -97 -608 -178
-389 -181 -656 -476 -657 -727 0 -98 22 -155 84 -217 48 -49 51 -50 54 -27 14
133 71 273 161 391 109 144 310 312 496 417 81 45 245 120 301 136 12 4 -47
-62 -130 -146 -241 -242 -415 -451 -961 -1158 -610 -789 -809 -1015 -957
-1089 -61 -31 -60 -34 11 -51 85 -21 241 43 406 167 122 91 397 368 590 593
152 178 396 480 745 923 90 114 165 206 166 204 2 -2 -17 -52 -42 -113 -49
-117 -142 -390 -194 -569 -23 -79 -30 -120 -26 -148 9 -52 48 -127 87 -166
l31 -32 27 43 c65 102 284 339 533 576 145 138 351 324 403 362 23 18 44 45
-176 -230 -86 -107 -263 -334 -394 -505 -451 -585 -572 -731 -751 -906 -110
-107 -164 -148 -219 -166 l-30 -10 38 -12 c114 -38 244 6 434 147 282 211 598
566 1293 1457 129 165 302 381 384 480 186 224 431 471 500 504 l49 24 -27 24
c-22 19 -38 23 -91 23 -261 0 -597 -168 -989 -494 -230 -191 -585 -555 -770
-788 -33 -43 -62 -74 -64 -69 -9 27 170 420 290 636 123 223 344 578 395 637
20 23 13 50 -17 65 -23 12 -194 16 -260 7z"/>
<path d="M32765 10955 c-264 -59 -634 -276 -937 -552 -103 -93 -263 -262 -255
-269 9 -9 285 15 354 31 70 16 71 16 194 139 188 186 367 308 502 343 61 16
70 16 95 3 64 -36 28 -156 -99 -334 -85 -118 -226 -266 -323 -338 -92 -69
-254 -151 -346 -175 -42 -12 -102 -18 -170 -18 -105 0 -133 8 -231 62 -7 4
-95 -109 -321 -409 -152 -201 -155 -206 -114 -187 78 36 182 19 222 -35 l20
-27 143 200 144 201 98 0 c137 0 237 16 358 56 343 114 632 351 881 721 207
308 226 526 51 588 -53 18 -181 18 -266 0z"/>
<path d="M21817 10862 c-28 -30 -36 -67 -14 -75 7 -2 -12 -31 -49 -73 -135
-154 -1247 -1501 -1300 -1574 -82 -114 -95 -195 -43 -273 17 -26 32 -47 34
-47 1 0 97 111 211 248 320 379 435 497 628 641 219 164 373 221 392 144 11
-44 -43 -132 -192 -313 -257 -313 -312 -400 -321 -509 -11 -136 92 -199 257
-157 130 33 259 118 405 265 44 45 82 81 85 81 3 0 5 -39 5 -88 1 -131 41
-193 160 -249 50 -23 77 -28 161 -31 161 -6 330 45 490 150 87 57 277 238 497
473 77 83 169 180 204 217 l64 67 62 -16 c45 -11 82 -13 136 -9 60 6 72 5 64
-6 -5 -7 -80 -100 -166 -206 -86 -105 -174 -218 -195 -250 -117 -171 -139
-296 -67 -369 39 -39 90 -50 170 -36 143 25 268 99 425 250 54 51 99 93 101
93 2 0 4 -37 4 -83 1 -126 42 -189 160 -244 83 -38 226 -44 342 -15 214 54
328 127 564 359 189 186 210 213 189 238 -25 31 -53 15 -176 -102 -212 -202
-349 -293 -509 -342 -87 -27 -195 -30 -250 -7 l-40 17 120 62 c134 69 223 126
338 214 312 241 527 530 527 709 0 109 -53 155 -184 162 -92 5 -172 -12 -275
-59 -217 -99 -523 -381 -686 -634 -36 -55 -93 -120 -181 -204 -149 -142 -245
-214 -319 -237 -86 -27 -113 -2 -77 72 18 37 186 242 645 788 64 77 117 143
117 148 0 30 -133 138 -170 138 -6 0 -35 -22 -63 -49 -105 -99 -270 -180 -399
-197 l-53 -7 42 49 c89 107 112 197 63 249 -22 24 -31 26 -80 23 -30 -2 -72
-13 -94 -23 -89 -43 -191 -185 -203 -283 -4 -37 0 -60 15 -96 l21 -47 -92
-106 c-127 -147 -433 -451 -523 -518 -203 -153 -434 -223 -559 -171 l-40 17
120 62 c134 69 223 126 338 214 312 241 527 530 527 709 0 109 -53 155 -184
162 -138 7 -262 -37 -438 -154 -164 -109 -412 -364 -521 -534 -43 -68 -322
-342 -397 -391 -143 -93 -246 -91 -207 3 8 18 103 139 212 268 269 318 364
467 401 627 67 289 -218 255 -625 -76 -142 -115 -144 -115 -35 4 56 61 166
184 244 275 78 91 222 250 319 353 187 200 209 232 186 263 -12 17 -30 19
-142 23 -126 3 -159 11 -149 38 8 19 3 16 -27 -15z m1793 -759 c0 -20 -58
-113 -71 -113 -14 0 1 50 28 93 25 39 43 48 43 20z m-706 -221 c17 -28 -113
-202 -259 -347 -133 -133 -241 -219 -378 -302 -92 -56 -102 -60 -105 -42 -4
23 44 130 86 191 87 127 304 341 429 424 97 64 211 102 227 76z m2110 0 c17
-28 -113 -202 -259 -347 -133 -133 -241 -219 -378 -302 -92 -56 -102 -60 -105
-42 -4 23 44 130 86 191 87 127 304 341 429 424 97 64 211 102 227 76z"/>
<path d="M31109 9186 c-109 -39 -229 -170 -229 -249 0 -72 95 -98 205 -56 76
28 187 134 204 193 12 46 -5 98 -37 115 -27 15 -99 13 -143 -3z"/>
<path d="M5890 2811 c-30 -4 -73 -17 -95 -29 -36 -20 -53 -22 -203 -22 -159 0
-163 -1 -202 -26 -35 -24 -47 -26 -94 -20 -49 5 -58 3 -86 -20 -23 -20 -43
-27 -80 -28 -41 -2 -53 -7 -71 -30 -18 -23 -27 -27 -52 -22 -22 5 -36 0 -59
-19 -19 -16 -42 -25 -64 -25 -25 0 -42 -8 -60 -27 -20 -21 -32 -26 -68 -25
-61 3 -79 -20 -44 -55 35 -35 119 -37 171 -4 27 16 44 20 74 16 31 -5 44 -2
72 19 29 22 46 26 102 26 50 0 80 6 121 25 49 23 70 25 224 30 93 2 185 9 204
15 32 10 201 24 290 24 19 0 76 -6 125 -14 102 -15 193 -14 213 2 7 6 32 12
55 12 38 1 42 4 45 29 3 25 1 27 -34 27 -25 0 -46 7 -61 22 -19 18 -34 21 -85
20 -51 -2 -69 3 -99 22 -20 13 -57 27 -82 31 -29 5 -54 16 -68 31 -12 13 -25
23 -28 23 -3 -1 -31 -5 -61 -8z"/>
<path d="M7461 447 c-6 -6 -11 -23 -11 -39 0 -30 23 -48 61 -48 13 0 33 -10
47 -22 22 -21 33 -23 143 -23 96 0 122 3 129 15 18 28 10 52 -29 91 l-38 39
-146 -1 c-90 -1 -149 -5 -156 -12z"/>
</g>
</svg>
